<?xml version="1.0" encoding="UTF-8" standalone="no"?>
<!DOCTYPE svg PUBLIC "-//W3C//DTD SVG 1.0//EN" "http://www.w3.org/TR/2001/PR-SVG-20010719/DTD/svg10.dtd">
<svg width="28cm" height="15cm" viewBox="19 -21 542 291" xmlns="http://www.w3.org/2000/svg" xmlns:xlink="http://www.w3.org/1999/xlink">
  <g>
    <rect style="fill: #ffffff" x="220" y="-20" width="120" height="69"/>
    <rect style="fill: none; fill-opacity:0; stroke-width: 2; stroke: #000000" x="220" y="-20" width="120" height="69"/>
    <text font-size="12.7998" style="fill: #000000;text-anchor:middle;font-family:sans-serif;font-style:normal;font-weight:normal" x="280" y="18.4">
      <tspan x="280" y="18.4">index</tspan>
    </text>
  </g>
  <g>
    <rect style="fill: #ffffff" x="20" y="100" width="120" height="69"/>
    <rect style="fill: none; fill-opacity:0; stroke-width: 2; stroke: #000000" x="20" y="100" width="120" height="69"/>
    <text font-size="12.7998" style="fill: #000000;text-anchor:middle;font-family:sans-serif;font-style:normal;font-weight:normal" x="80" y="138.4">
      <tspan x="80" y="138.4">blog</tspan>
    </text>
  </g>
  <g>
    <rect style="fill: #ffffff" x="160" y="100" width="120" height="69"/>
    <rect style="fill: none; fill-opacity:0; stroke-width: 2; stroke: #000000" x="160" y="100" width="120" height="69"/>
    <text font-size="12.7998" style="fill: #000000;text-anchor:middle;font-family:sans-serif;font-style:normal;font-weight:normal" x="220" y="138.4">
      <tspan x="220" y="138.4">education</tspan>
    </text>
  </g>
  <g>
    <rect style="fill: #ffffff" x="300" y="100" width="120" height="69"/>
    <rect style="fill: none; fill-opacity:0; stroke-width: 2; stroke: #000000" x="300" y="100" width="120" height="69"/>
    <text font-size="12.7998" style="fill: #000000;text-anchor:middle;font-family:sans-serif;font-style:normal;font-weight:normal" x="360" y="138.4">
      <tspan x="360" y="138.4">employment</tspan>
    </text>
  </g>
  <g>
    <rect style="fill: #ffffff" x="440" y="100" width="120" height="69"/>
    <rect style="fill: none; fill-opacity:0; stroke-width: 2; stroke: #000000" x="440" y="100" width="120" height="69"/>
    <text font-size="12.7998" style="fill: #000000;text-anchor:middle;font-family:sans-serif;font-style:normal;font-weight:normal" x="500" y="138.4">
      <tspan x="500" y="138.4">portfolio</tspan>
    </text>
  </g>
  <g>
    <rect style="fill: #ffffff" x="20" y="200" width="120" height="69"/>
    <rect style="fill: none; fill-opacity:0; stroke-width: 2; stroke: #000000" x="20" y="200" width="120" height="69"/>
    <text font-size="12.7998" style="fill: #000000;text-anchor:middle;font-family:sans-serif;font-style:normal;font-weight:normal" x="80" y="238.4">
      <tspan x="80" y="238.4">archive</tspan>
    </text>
  </g>
  <g>
    <polyline style="fill: none; fill-opacity:0; stroke-width: 2; stroke: #000000" points="80,170.009 80,171.009 80,199 80,190.264 "/>
    <polygon style="fill: #000000" points="80,197.764 85,207.764 80,205.264 75,207.764 "/>
    <polygon style="fill: none; fill-opacity:0; stroke-width: 2; stroke: #000000" points="80,197.764 85,207.764 80,205.264 75,207.764 "/>
  </g>
  <g>
    <polyline style="fill: none; fill-opacity:0; stroke-width: 2; stroke: #000000" points="500,98.9913 500,74.5 280,74.5 280,59.7447 "/>
    <polygon style="fill: #000000" points="280,52.2447 285,62.2447 280,59.7447 275,62.2447 "/>
    <polygon style="fill: none; fill-opacity:0; stroke-width: 2; stroke: #000000" points="280,52.2447 285,62.2447 280,59.7447 275,62.2447 "/>
  </g>
  <g>
    <polyline style="fill: none; fill-opacity:0; stroke-width: 2; stroke: #000000" points="360,98.9913 360,74.5 280,74.5 280,59.7447 "/>
    <polygon style="fill: #000000" points="280,52.2447 285,62.2447 280,59.7447 275,62.2447 "/>
    <polygon style="fill: none; fill-opacity:0; stroke-width: 2; stroke: #000000" points="280,52.2447 285,62.2447 280,59.7447 275,62.2447 "/>
  </g>
  <g>
    <polyline style="fill: none; fill-opacity:0; stroke-width: 2; stroke: #000000" points="220,98.9913 220,74.5 280,74.5 280,59.7447 "/>
    <polygon style="fill: #000000" points="280,52.2447 285,62.2447 280,59.7447 275,62.2447 "/>
    <polygon style="fill: none; fill-opacity:0; stroke-width: 2; stroke: #000000" points="280,52.2447 285,62.2447 280,59.7447 275,62.2447 "/>
  </g>
  <g>
    <polyline style="fill: none; fill-opacity:0; stroke-width: 2; stroke: #000000" points="80,98.9913 80,74.5 280,74.5 280,59.7447 "/>
    <polygon style="fill: #000000" points="280,52.2447 285,62.2447 280,59.7447 275,62.2447 "/>
    <polygon style="fill: none; fill-opacity:0; stroke-width: 2; stroke: #000000" points="280,52.2447 285,62.2447 280,59.7447 275,62.2447 "/>
  </g>
</svg>
